 http://img801.imageshack.us/img801/8545/riseoftheplanetoftheapew.jpg


Verenigde Staten
Actie / Avontuur
105 minuten

geregisseerd door Rupert Wyatt
met James Franco, Brian Cox en Tom Felton

Het verhaal speelt zich af in het huidige San Francisco, waar de wetenschapper Will Rodman zich bezighoudt met genetische manipulatie op apen in z’n strijd tegen Alzheimer. Wanneer één van de proefdieren, Caesar, zich intellectueel snel begint te ontwikkelen, ontstaat een oorlog voor de suprematie tussen mens en aap.


Vertaald door het DRT vertaalteam:
Désirée
Sync: Opa38





Screenshots:
 
http://img585.imageshack.us/img585/8268/screenshot1oq.jpg
 
http://img835.imageshack.us/img835/1258/screenshot2fj.jpg
 
http://img163.imageshack.us/img163/3245/screenshot3yf.jpg
 
http://img828.imageshack.us/img828/4142/screenshot4ccj.jpg



INFO;


Video
ID                                       : 0
Format                                   : MPEG-4 Visual
Format profile                           : Advanced Simple@L5
Format settings, BVOP                    : 1
Format settings, QPel                    : No
Format settings, GMC                     : No warppoints
Format settings, Matrix                  : Default (H.263)
Muxing mode                              : Packed bitstream
Codec ID                                 : XVID
Codec ID/Hint                            : XviD
Duration                                 : 1h 44mn
Bit rate                                 : 2 065 Kbps
Width                                    : 640 pixels
Height                                   : 480 pixels
Display aspect ratio                     : 4:3
Frame rate                               : 29.970 fps
Color space                              : YUV
Chroma subsampling                       : 4:2:0
Bit depth                                : 8 bits
Scan type                                : Progressive
Compression mode                         : Lossy
Bits/(Pixel*Frame)                       : 0.224
Stream size                              : 1.51 GiB (94%)
Writing library                          : XviD 64

Audio
ID                                       : 1
Format                                   : MPEG Audio
Format version                           : Version 1
Format profile                           : Layer 3
Mode                                     : Joint stereo
Mode extension                           : MS Stereo
Codec ID                                 : 55
Codec ID/Hint                            : MP3
Duration                                 : 1h 44mn
Bit rate mode                            : Constant
Bit rate                                 : 128 Kbps
Channel(s)                               : 2 channels
Sampling rate                            : 44.1 KHz
Compression mode                         : Lossy
Stream size                              : 96.1 MiB (6%)
Alignment                                : Split accross interleaves
Interleave, duration                     : 33 ms (1.00 video frame)
Interleave, preload duration             : 500 ms
Writing library                          : LAME3.98.2



 
http://www.imdb.com/title/tt1318514/ 
http://www.moviemeter.nl/film/74755



Deze film wordt u aangeboden door het DutchReleaseTeam.
Voor de reviews van de nieuwste films, muziek, series, games etc
ga dan eens naar http://www.hetmultimediacafe.be

DutchReleaseteam = Hardcoded Dutch Subs